<?xml version="1.0" standalone="no"?><svg xmlns="http://www.w3.org/2000/svg" viewBox="0 0 1440 320"><path fill="#0099ff" fill-opacity="1" d="M0,160L18.5,160C36.9,160,74,160,111,170.7C147.7,181,185,203,222,213.3C258.5,224,295,224,332,213.3C369.2,203,406,181,443,192C480,203,517,245,554,234.7C590.8,224,628,160,665,138.7C701.5,117,738,139,775,165.3C812.3,192,849,224,886,218.7C923.1,213,960,171,997,128C1033.8,85,1071,43,1108,37.3C1144.6,32,1182,64,1218,101.3C1255.4,139,1292,181,1329,181.3C1366.2,181,1403,139,1422,117.3L1440,96L1440,320L1421.5,320C1403.1,320,1366,320,1329,320C1292.3,320,1255,320,1218,320C1181.5,320,1145,320,1108,320C1070.8,320,1034,320,997,320C960,320,923,320,886,320C849.2,320,812,320,775,320C738.5,320,702,320,665,320C627.7,320,591,320,554,320C516.9,320,480,320,443,320C406.2,320,369,320,332,320C295.4,320,258,320,222,320C184.6,320,148,320,111,320C73.8,320,37,320,18,320L0,320Z"></path></svg>